<?xml version="1.0" standalone="no"?>
<!DOCTYPE svg PUBLIC "-//W3C//DTD SVG 20010904//EN"
 "http://www.w3.org/TR/2001/REC-SVG-20010904/DTD/svg10.dtd">
<svg version="1.0" xmlns="http://www.w3.org/2000/svg"
 width="290.000000pt" height="290.000000pt" viewBox="0 0 290.000000 290.000000"
 preserveAspectRatio="xMidYMid meet">
<metadata>
Created by potrace 1.14, written by Peter Selinger 2001-2017
</metadata>
<g transform="translate(0.000000,290.000000) scale(0.100000,-0.100000)"
fill="#000000" stroke="none">
<path d="M396 1148 c-4 -13 -9 -77 -12 -143 l-6 -120 37 -60 c53 -88 111 -160
189 -237 61 -61 186 -157 242 -186 24 -12 23 -23 3 106 -10 69 -13 74 -49 97
-55 35 -151 127 -202 193 -23 31 -46 59 -49 62 -3 3 -24 37 -46 75 -39 69 -47
89 -83 188 -15 42 -18 45 -24 25z"/>
<path d="M2500 1085 c0 -10 -18 -49 -40 -86 -22 -37 -40 -70 -40 -73 0 -12
-160 -202 -202 -241 -55 -51 -209 -155 -268 -182 -76 -34 -151 -60 -245 -85
-165 -42 -467 -28 -603 29 -29 12 -35 12 -57 -4 -13 -10 -25 -24 -25 -32 0 -8
-14 -26 -31 -41 l-30 -28 83 -30 c141 -51 235 -66 408 -66 114 -1 177 4 240
18 335 73 621 274 795 561 l36 60 -6 105 c-4 58 -9 107 -11 109 -2 2 -4 -4 -4
-14z"/>
<path d="M320 1035 c0 -5 5 -17 10 -25 5 -8 10 -10 10 -5 0 6 -5 17 -10 25 -5
8 -10 11 -10 5z"/>
<path d="M340 988 c0 -3 7 -21 15 -39 16 -34 16 -34 10 -4 -6 26 -25 60 -25
43z"/>
</g>
</svg>
